<?xml version="1.0" encoding="UTF-8"?>
<svg id="Layer_2" data-name="Layer 2" xmlns="http://www.w3.org/2000/svg" viewBox="0 0 892.04 174.81">
  <defs>
    <style>
      .cls-1 {
        fill: #87a82c;
      }

      .cls-2 {
        fill: #88a82b;
      }
    </style>
  </defs>
  <g id="Layer_1-2" data-name="Layer 1">
    <g>
      <g>
        <path class="cls-1" d="M268.83,72.07c0-16.24-9.99-26.7-31.7-26.7h-39.35v93.69h14.37v-39.19h18.27l27.01,39.19h17.33v-.31l-29.2-39.66c14.99-2.81,23.27-12.18,23.27-27.01ZM212.15,87.06v-28.89h24.2c13.58,0,18.27,5.47,18.27,14.21,0,9.52-7.03,14.68-19.05,14.68h-23.42Z"/>
        <path class="cls-1" d="M310.67,64.26c-22.17,0-37.01,14.52-37.01,38.88s14.68,37.63,37.16,37.63c18.58,0,29.04-9.21,32.79-23.58l-12.02-3.59c-2.5,8.59-7.65,15.3-20.77,15.3-13.9,0-22.17-7.81-23.58-22.02h56.52c.31-3.43.31-6.4.31-8.74,0-19.99-11.71-33.88-33.41-33.88ZM287.56,96.27c1.87-13.58,10.15-20.3,22.64-20.3,13.43,0,20.14,7.34,21.08,20.3h-43.72Z"/>
        <path class="cls-1" d="M386.08,128.44c-14.52,0-23.73-9.52-23.73-25.76,0-17.33,9.53-25.92,23.27-25.92,12.8,0,19.21,7.18,21.86,18.74l13.12-2.34c-3.28-18.27-13.58-28.89-34.82-28.89s-37.32,14.21-37.32,38.26,14.99,38.41,37.79,38.41c20.61,0,31.23-11.09,34.51-29.51l-12.96-2.65c-2.81,11.09-7.5,19.67-21.7,19.67Z"/>
        <path class="cls-1" d="M462.42,64.26c-22.17,0-37.16,14.21-37.16,38.1s13.9,38.57,37.16,38.57,36.85-14.83,36.85-38.57-14.99-38.1-36.85-38.1ZM462.27,128.44c-15.15,0-23.42-10.46-23.42-26.23s8.9-25.45,23.42-25.45,23.42,9.84,23.42,25.45-8.43,26.23-23.42,26.23Z"/>
        <path class="cls-1" d="M540.8,64.26c-22.17,0-37.16,14.21-37.16,38.1s13.9,38.57,37.16,38.57,36.85-14.83,36.85-38.57-14.99-38.1-36.85-38.1ZM540.65,128.44c-15.15,0-23.42-10.46-23.42-26.23s8.9-25.45,23.42-25.45,23.42,9.84,23.42,25.45-8.43,26.23-23.42,26.23Z"/>
        <path class="cls-1" d="M627.3,64.26c-15.46,0-22.49,7.19-25.61,21.71h-1.87v-19.83h-13.58v94.47h13.58v-39.36h1.71c2.97,14.68,9.84,19.69,25.92,19.69,18.89,0,29.82-14.68,29.82-38.57s-10.31-38.1-29.98-38.1ZM623.87,128.75c-12.74,0-20.85-10.15-20.85-25.76v-1.09c0-16.24,8.11-25.3,20.85-25.3,13.61,0,19.98,9.37,19.98,25.76s-6.8,26.39-19.98,26.39Z"/>
        <path class="cls-1" d="M698.81,64.26c-22.17,0-37.01,14.52-37.01,38.88s14.68,37.63,37.16,37.63c18.58,0,29.04-9.21,32.79-23.58l-12.02-3.59c-2.5,8.59-7.65,15.3-20.77,15.3-13.9,0-22.17-7.81-23.58-22.02h56.52c.31-3.43.31-6.4.31-8.74,0-19.99-11.71-33.88-33.41-33.88ZM675.7,96.27c1.87-13.58,10.15-20.3,22.64-20.3,13.43,0,20.14,7.34,21.08,20.3h-43.72Z"/>
        <path class="cls-1" d="M755.66,80.37h-1.27v-14.23h-13.58v72.92h13.58v-38.57c0-14.05,6.09-19.36,19.83-19.36h6.56v-14.99h-4.53c-11.71,0-17.52.15-20.59,14.23Z"/>
        <path class="cls-1" d="M817.62,64.58c-19.21,0-29.2,9.53-31.7,26.54l12.96,1.87c2.03-12.02,7.81-16.86,18.27-16.86,11.55,0,15.93,6.25,15.93,17.64v3.9h-23.58c-17.64,0-25.76,9.52-25.76,22.33,0,13.74,9.21,20.61,23.42,20.61,12.65,0,20.07-2.71,24.98-13.92h.93v12.35h13.58v-45.44c0-18.74-8.74-29.04-29.04-29.04ZM833.08,111.89c0,9.99-8.27,17.33-21.7,17.33-10.62,0-14.21-5.31-14.21-10.93,0-6.4,5-9.84,14.21-9.84h21.7v3.43Z"/>
        <path class="cls-1" d="M883.58,109.02c-12.42,0-22.49,10.07-22.49,22.49v7.93h5.24c14.2,0,25.71-11.51,25.71-25.71v-4.72h-8.46Z"/>
      </g>
      <path class="cls-2" d="M.06,84.48l.03-.83c.05-1.02.11-2.03.19-3.06l.26-3.2h.06C5.73,34.04,43.18.49,87.16.49c21.43,0,42.18,8,58.08,22.18l-.3-22.67,21.05,20.5.5,38.14-38.14.5-21.05-20.5,24.67-.32c-12.2-11.08-28.16-17.31-44.8-17.31-33.43,0-61.91,25.34-66.1,58.2,32.15,6.65,57.41,30.7,66.1,61.6,4.31-15.27,12.76-29.17,24.61-40.16,16.08-14.93,37.03-23.19,58.98-23.26h3.02s.25,3,.25,3c.2,2.35.3,4.79.3,7.26,0,.28,0,.56,0,.84v.35c-.55,40.66-29.82,76.07-69.67,84.21-.66.13-1.32.26-1.98.38l-2.07.35c-.58.09-1.17.17-1.88.27l-.21.03c-3.74.49-7.56.74-11.33.74-3.78,0-7.59-.25-11.31-.73l-.37-.05c-.58-.08-1.17-.16-1.74-.25-.28-.04-.57-.09-.85-.14l-1.22-.21c-.67-.12-1.33-.25-2.05-.39C29.28,164.8,0,128.89,0,87.64c0-1.06.03-2.11.06-3.15Z"/>
    </g>
  </g>
</svg>