<?xml version="1.0" encoding="UTF-8"?>
<svg id="Layer_2" data-name="Layer 2" xmlns="http://www.w3.org/2000/svg" viewBox="0 0 401.76 402.9">
  <defs>
    <style>
      .cls-1 {
        fill: #88a82b;
      }
    </style>
  </defs>
  <g id="Layer_1-2" data-name="Layer 1">
    <path class="cls-1" d="M.15,194.71l.07-1.9c.11-2.34.25-4.68.44-7.04l.61-7.38h.13C13.21,78.45,99.51,1.14,200.88,1.14c49.39,0,97.22,18.44,133.86,51.12l-.7-52.26,48.5,47.25,1.15,87.91-87.91,1.15-48.51-47.25,56.86-.73c-28.13-25.53-64.91-39.9-103.26-39.9-77.06,0-142.7,58.39-152.35,134.15,74.1,15.32,132.32,70.76,152.36,141.98,9.93-35.2,29.4-67.22,56.71-92.57,37.06-34.4,85.34-53.44,135.94-53.6l6.95-.02.58,6.93c.46,5.41.69,11.04.69,16.73,0,.64-.01,1.29-.02,1.93v.81c-1.27,93.71-68.73,175.32-160.59,194.08-1.52.31-3.04.6-4.55.87l-4.78.8c-1.35.21-2.7.4-4.33.62l-.49.07c-8.63,1.13-17.42,1.7-26.12,1.7-8.7,0-17.49-.57-26.07-1.69l-.85-.12c-1.35-.18-2.69-.37-4.01-.57-.66-.1-1.31-.21-1.96-.32l-2.82-.48c-1.54-.28-3.06-.57-4.73-.91C67.48,379.82,0,297.06,0,201.98c0-2.44.06-4.86.15-7.27Z"/>
  </g>
</svg>